<?xml version="1.0"?><svg width="640" height="480" xmlns="http://www.w3.org/2000/svg">
 <g>
  <title>Layer 1</title>
  <g id="layer1">
   <g id="g6343"/>
   <g id="g9086"/>
   <path fill="#ffffff" fill-rule="nonzero" stroke="#000000" stroke-width="6" id="path5973" d="m326.091156,130.217987l-125.611145,60.967407l-40.433365,95.843109c0,0 29.349243,4.008698 42.621857,6.320282l1.172043,40.618195l180.379639,33.904449l63.273163,-87.387146l0.652161,-34.05545l23.717957,-35.169037l-26.12796,-63.445679l-119.644348,-17.59613z"/>
   <path fill="#ffffff" fill-rule="evenodd" stroke="#000000" stroke-width="6" id="path3628" d="m203.806473,192.811646c3.528824,-2.524414 122.714798,-61.252289 122.714798,-61.252289l6.019653,147.155457c0,0 -126.693542,53.571075 -126.693542,51.046631c0,-2.524384 -2.040909,-136.949799 -2.040909,-136.949799z"/>
   <path fill="#ffffff" fill-rule="evenodd" stroke="#000000" stroke-width="6" id="path3626" d="m443.986847,150.439987l-117.467194,-18.788574l5.861633,147.169754l111.917236,2.109253l-0.311676,-130.490433z"/>
   <path fill="#ffffff" fill-rule="evenodd" stroke="#000000" stroke-width="6" id="path2085" d="m382.95871,217.671555c3.52887,-5.048828 61.09433,-66.788651 61.09433,-66.788651l-0.110413,129.737l-61.289673,83.758453l0.305756,-146.706802z"/>
   <path fill="#ffffff" fill-rule="evenodd" stroke="#000000" stroke-width="6" id="path2083" d="m202.988373,193.058441l181.146637,24.613113l-1.1763,147.04747l-177.029663,-33.448517l-2.940674,-138.212067z"/>
   <path fill="#ffffff" fill-rule="evenodd" stroke="#000000" stroke-width="6" id="path5971" d="m202.988373,192.87236l1.811874,99.606644c22.045013,6.27597 153.976913,28.620911 155.153183,26.096497c1.1763,-2.524414 24.35498,-101.238358 24.35498,-98.824554l-181.320038,-26.878586z"/>
   <path fill="#ffffff" fill-rule="evenodd" stroke="#000000" stroke-width="6" id="path3630" d="m202.988373,192.87236l-38.229019,90.434097c0,0 189.968735,33.448578 191.145004,30.924194c1.1763,-2.524475 27.054352,-95.927994 27.054352,-95.927994l-179.970337,-25.430298z"/>
   <path fill="#ffffff" fill-rule="evenodd" stroke="#000000" stroke-width="6" id="path5969" d="m383.096985,222.795883l24.666595,86.909042l37.530426,-58.609344l-1.75705,-100.952286l-60.439972,72.652588z"/>
   <path fill="#ffffff" fill-rule="evenodd" stroke="#000000" stroke-width="6" id="path3632" d="m382.647064,217.485474l27.366028,81.598663l58.225708,-87.092545l-24.701843,-61.848297l-60.889893,67.342178z"/>
  </g>
 </g>
</svg>